<?xml version="1.0" encoding="UTF-8" standalone="no"?>
<!-- Created with Inkscape (http://www.inkscape.org/) -->

<svg
   xmlns:dc="http://purl.org/dc/elements/1.1/"
   xmlns:cc="http://creativecommons.org/ns#"
   xmlns:rdf="http://www.w3.org/1999/02/22-rdf-syntax-ns#"
   xmlns:svg="http://www.w3.org/2000/svg"
   xmlns="http://www.w3.org/2000/svg"
   xmlns:sodipodi="http://sodipodi.sourceforge.net/DTD/sodipodi-0.dtd"
   xmlns:inkscape="http://www.inkscape.org/namespaces/inkscape"
   width="210mm"
   height="297mm"
   viewBox="0 0 210 297"
   version="1.1"
   id="svg8"
   inkscape:version="0.92.4 (5da689c313, 2019-01-14)"
   sodipodi:docname="dibujo.svg">
  <defs
     id="defs2" />
  <sodipodi:namedview
     id="base"
     pagecolor="#ffffff"
     bordercolor="#666666"
     borderopacity="1.0"
     inkscape:pageopacity="0.0"
     inkscape:pageshadow="2"
     inkscape:zoom="0.35"
     inkscape:cx="-75.714286"
     inkscape:cy="560"
     inkscape:document-units="mm"
     inkscape:current-layer="layer1"
     showgrid="false"
     inkscape:window-width="1600"
     inkscape:window-height="837"
     inkscape:window-x="-8"
     inkscape:window-y="-8"
     inkscape:window-maximized="1" />
  <metadata
     id="metadata5">
    <rdf:RDF>
      <cc:Work
         rdf:about="">
        <dc:format>image/svg+xml</dc:format>
        <dc:type
           rdf:resource="http://purl.org/dc/dcmitype/StillImage" />
        <dc:title></dc:title>
      </cc:Work>
    </rdf:RDF>
  </metadata>
  <g
     inkscape:label="Capa 1"
     inkscape:groupmode="layer"
     id="layer1">
    <path
       style="fill:#000000;stroke-width:0.26458332"
       d="m 114.21337,221.69769 c 0.11862,-0.25466 0.19122,-0.93927 0.16133,-1.52136 -0.23317,-4.54092 -0.26994,-4.65584 -1.9034,-5.94956 l -1.06283,-0.84178 -0.003,1.01442 c -0.005,1.64686 -0.30544,3.09019 -0.56013,2.68846 -0.12243,-0.19312 -0.22443,-0.59101 -0.22665,-0.8842 -0.002,-0.2932 -0.23665,-0.96707 -0.52094,-1.49749 -0.28429,-0.53042 -0.5979,-1.60022 -0.69691,-2.37733 -0.099,-0.77711 -0.29554,-1.63664 -0.43671,-1.91005 -0.14118,-0.27341 -0.36047,-2.15499 -0.48732,-4.18129 -0.24808,-3.96306 -0.43952,-4.9573 -1.47057,-7.63724 -0.38931,-1.01192 -0.63032,-2.11221 -0.57955,-2.64584 0.0757,-0.79608 0.25427,-0.99854 1.38885,-1.57497 2.17762,-1.10635 2.37111,-1.55667 2.55107,-5.93706 0.13938,-3.39268 0.22993,-3.94247 0.86225,-5.23488 0.38859,-0.79425 0.93184,-1.64799 1.20723,-1.89721 0.49037,-0.44378 0.48867,-0.47604 -0.0822,-1.56334 -0.39918,-0.76035 -1.03237,-1.3812 -2.00927,-1.97011 -0.78452,-0.47295 -1.4912,-0.85571 -1.5704,-0.85058 -0.0792,0.005 -0.9987,1.16599 -2.04334,2.57969 -8.317249,11.25571 -19.450279,18.78739 -28.981379,19.60639 -7.06969,0.60749 -14.47584,-0.94733 -20.06719,-4.21286 -9.74976,-5.69416 -15.52896,-16.29645 -17.58347,-32.25791 -0.35342,-2.74571 -0.37371,-3.78247 -0.12173,-6.2177 1.71774,-16.60036 7.70544,-26.98718 17.38481,-30.15732 1.65688,-0.54266 2.45268,-0.37203 2.45268,0.52587 0,0.51973 -0.31038,0.79595 -1.65365,1.47164 -4.62815,2.32805 -8.65043,8.81063 -11.06238,17.82892 -0.83466,3.1208 -0.84634,3.24501 -0.68395,7.27604 0.27454,6.81515 1.2235,11.61646 3.20658,16.22387 1.29729,3.01407 2.41912,4.75913 4.50486,7.00753 4.16839,4.49349 9.34852,6.66652 15.8918,6.66652 5.78925,0 10.15213,-2.02318 15.06555,-6.98627 2.8078,-2.83619 4.97453,-6.03353 6.20289,-9.15331 2.49069,-6.32587 6.96183,-13.81425 12.350139,-20.68432 1.21861,-1.55373 2.21565,-2.89468 2.21565,-2.9799 0,-0.26877 -2.92593,-1.48288 -6.146979,-2.55067 -3.9841,-1.32075 -7.97567,-2.03644 -13.39815,-2.40228 -5.27033,-0.35558 -6.28641,-0.17822 -9.27746,1.61946 -2.27628,1.36809 -2.92711,1.37529 -0.94337,0.0105 2.77944,-1.9123 2.86087,-5.04214 0.27332,-10.50453 -0.96578,-2.03877 -3.91597,-6.96116 -4.16965,-6.95703 -0.0396,5.3e-4 -1.4413,0.47636 -3.11479,1.05716 -1.67348,0.58079 -3.28083,1.05585 -3.57187,1.05568 -1.33852,-7.9e-4 -2.714,-0.71345 -5.3523,-2.77322 -3.91919,-3.05978 -3.79223,-3.0053 -5.30503,-2.27667 l -1.24892,0.60153 0.8599,-0.89595 c 0.47294,-0.49277 0.85989,-0.96932 0.85989,-1.059 0,-0.43722 -3.44623,-2.85446 -4.06957,-2.85446 -0.37799,0 -1.29322,-0.23025 -2.03384,-0.51167 -1.39596,-0.53042 -4.84745,-2.64858 -4.64527,-2.85076 0.0632,-0.0632 1.58485,0.1312 3.38132,0.43212 3.4003,0.56957 11.74757,1.60411 12.95964,1.60619 0.51063,8e-4 1.97676,-1.05921 5.47288,-3.95719 11.0621,-9.16954 19.66684,-18.160045 28.62494,-29.908272 3.09277,-4.056055 7.869519,-9.726358 12.927559,-15.345833 4.53684,-5.040424 4.86759,-5.653933 5.05116,-9.369327 0.20031,-4.054428 0.5814,-3.418966 2.51387,4.191854 1.08315,4.265829 3.10345,9.448199 7.54194,19.346142 3.61165,8.054074 4.96847,10.39697 7.42366,12.818831 2.00641,1.979173 3.7133,2.986638 6.09302,3.596288 2.00192,0.51287 3.2656,0.38343 5.37832,-0.55092 0.85382,-0.377593 1.5969,-0.642031 1.65129,-0.587635 0.2975,0.297495 -1.76438,2.736705 -3.04239,3.599155 -1.88991,1.27538 -9.15661,5.584777 -9.4173,5.584777 -0.10797,0 -0.55005,0.29765 -0.9824,0.66146 -0.52571,0.44235 -1.10803,0.66168 -1.75799,0.66212 -1.45346,0.001 -5.90928,1.27003 -6.54009,1.86264 -0.30322,0.28487 -0.73079,0.51794 -0.95015,0.51794 -1.07436,0 -2.93455,0.90799 -3.57178,1.74343 -0.3754,0.49218 -1.41385,1.39394 -2.30767,2.00392 -2.11902,1.44612 -5.5695,4.16374 -5.68205,4.47525 -0.0492,0.13614 0.85415,0.24407 2.04278,0.24407 1.94137,0 2.23172,-0.0708 3.26319,-0.79551 0.67765,-0.47612 1.82269,-0.93961 2.85201,-1.15444 2.25753,-0.47116 4.99129,-1.62545 10.31875,-4.35695 2.40109,-1.2311 5.57651,-2.84575 7.05648,-3.58812 3.09189,-1.55093 4.05602,-2.3403 4.05602,-3.32081 v -0.68816 l 2.71198,0.0983 2.71198,0.0983 2.11666,-1.80083 c 1.16417,-0.990457 4.67891,-4.365457 7.81055,-7.499995 3.13163,-3.13454 6.51193,-6.408317 7.51178,-7.275065 l 1.8179,-1.575901 -0.23382,1.575901 c -0.33218,2.238872 0.0829,10.830683 0.58666,12.143473 0.21514,0.56065 0.61677,0.52382 2.90667,-0.26655 1.08228,-0.37356 2.22481,-0.64145 2.53895,-0.59532 0.49762,0.0731 0.42773,0.18296 -0.54279,0.85336 -0.78291,0.54082 -3.29325,1.4229 -8.44763,2.968317 -4.03352,1.20936 -7.61256,2.20254 -7.95341,2.20708 -0.34085,0.005 -0.92245,0.24637 -1.29245,0.53741 -0.53029,0.41713 -1.07336,0.52917 -2.56495,0.52917 h -1.89222 l -2.14928,3.37344 c -1.1821,1.85539 -2.12001,3.40351 -2.08425,3.44027 0.0358,0.0368 0.75911,-0.17198 1.60745,-0.46385 0.84835,-0.29187 2.48028,-0.72071 3.62653,-0.95297 2.1518,-0.43601 3.30066,-0.33354 7.78484,0.69434 1.00302,0.22992 6.36576,3.33324 8.56427,4.956 2.49267,1.83988 4.6412,3.72425 5.44176,4.77271 l 0.88628,1.16073 0.1775,-0.70725 c 0.0976,-0.38898 0.10818,-1.2926 0.0234,-2.00804 -0.0847,-0.71544 -0.0951,-1.3008 -0.023,-1.3008 0.0721,0 0.48055,0.73899 0.9077,1.6422 0.73733,1.55909 0.95973,2.42395 1.9413,7.54931 0.47129,2.46089 1.42345,4.90558 1.8161,4.66291 0.1436,-0.0888 0.4842,-0.65269 0.7569,-1.2532 0.75094,-1.6537 0.60467,-0.4757 -0.28633,2.3058 -0.43656,1.36286 -0.79375,3.01797 -0.79375,3.67802 0,0.78603 -0.17394,1.41491 -0.50415,1.8227 -0.31478,0.38874 -0.42722,0.77244 -0.29934,1.0215 0.29847,0.58129 0.62331,3.8363 0.57887,5.80053 -0.0301,1.33028 -0.20113,1.98549 -0.79062,3.0289 -1.00896,1.78591 -1.43553,2.03141 -2.23106,1.28404 -0.34335,-0.32255 -0.77244,-0.58646 -0.95355,-0.58646 -0.18111,0 -0.25571,-0.11906 -0.16577,-0.26458 0.0906,-0.14656 -0.10309,-0.26458 -0.43418,-0.26458 -0.46488,0 -0.52714,-0.0706 -0.2802,-0.3175 0.49532,-0.49532 0.38394,-0.6842 -0.52066,-0.88288 -0.69287,-0.15218 -0.76166,-0.2269 -0.39687,-0.43105 0.72499,-0.40572 0.50254,-0.74982 -0.48476,-0.74982 -1.05917,0 -1.18175,-0.29484 -0.35171,-0.84597 0.69508,-0.46152 0.44737,-1.00612 -0.45766,-1.00612 -0.76354,0 -0.81725,-0.20523 -0.18282,-0.69861 0.43473,-0.33807 0.42486,-0.3924 -0.1616,-0.88906 -0.34354,-0.29095 -0.49237,-0.52899 -0.33073,-0.52899 0.53017,0 0.30723,-0.72855 -0.26905,-0.87925 -0.63414,-0.16583 -0.63118,-0.0858 0.15499,4.18654 0.44053,2.394 0.52855,5.3182 0.16682,5.54176 -0.13263,0.082 -0.31615,-0.35749 -0.40783,-0.97657 -0.29477,-1.99048 -1.25576,-5.75582 -1.469,-5.75582 -0.35573,0 -0.56076,0.87449 -0.25006,1.06651 0.19812,0.12245 0.15742,0.23584 -0.12333,0.34358 -0.45461,0.17445 -0.58728,1.23575 -0.15448,1.23575 0.14552,0 0.26459,0.11906 0.26459,0.26458 0,0.14552 -0.23813,0.26458 -0.52917,0.26458 -0.61798,0 -0.71931,0.7374 -0.13229,0.96266 0.56126,0.21537 0.49311,0.62484 -0.10399,0.62484 -0.54781,0 -0.95019,0.68333 -0.54855,0.93156 0.15371,0.095 0.14319,0.27705 -0.0272,0.47149 -0.15271,0.17421 -0.50696,0.7037 -0.78723,1.17664 -0.58302,0.98381 -1.2767,1.09967 -1.97359,0.32961 -0.26394,-0.29165 -0.93021,-0.65154 -1.48059,-0.79974 l -1.0007,-0.26946 0.50774,-1.11848 c 0.40954,-0.90217 0.50886,-1.73721 0.51355,-4.31757 0.008,-4.66954 -0.40536,-7.38225 -1.34534,-8.81868 -0.92248,-1.4097 -1.0503,-2.2126 -0.23473,-1.47452 0.92665,0.83861 0.94451,0.16196 0.0622,-2.3574 -0.47166,-1.34682 -0.85757,-2.5881 -0.85757,-2.7584 0,-0.18525 0.42847,-0.30963 1.06663,-0.30963 1.26044,0 1.52372,-0.41566 0.9572,-1.5112 -0.55433,-1.07196 -2.63901,-2.93131 -3.95786,-3.53008 -1.4671,-0.66607 -3.99668,-0.67213 -5.72947,-0.0137 -2.9406,1.11734 -6.87293,4.6984 -9.54308,8.6906 -0.72284,1.08074 -1.31426,2.2687 -1.31426,2.63992 0,0.82846 -0.47666,3.8247 -0.82071,5.15891 -0.13947,0.54086 -0.84447,1.85054 -1.56667,2.91041 -0.7222,1.05987 -1.31392,2.08527 -1.31493,2.27866 -0.001,0.19339 0.61132,1.05659 1.36074,1.91823 1.0995,1.26412 1.51648,1.56661 2.15957,1.56661 0.81203,0 3.09242,-1.15959 3.09242,-1.57252 0,-0.43391 1.88731,-1.33789 2.79325,-1.33789 0.501,0 0.91092,-0.11907 0.91092,-0.26459 0,-0.14552 0.61794,-0.26458 1.37321,-0.26458 1.33204,0 1.41544,0.0456 2.7817,1.52135 1.28252,1.38529 1.9604,2.7252 1.90744,3.77032 -0.0111,0.21828 -0.1863,0.0173 -0.38943,-0.44654 -0.4128,-0.9427 -1.03306,-1.39313 -1.68398,-1.2229 -0.25281,0.0661 -0.74305,-0.23362 -1.17491,-0.7183 -0.40759,-0.45746 -0.79548,-0.77735 -0.86196,-0.71086 -0.15318,0.15318 0.94242,2.22448 1.79678,3.39691 0.77561,1.06439 1.35177,2.34752 1.0541,2.34752 -0.11704,0 -0.49243,-0.29766 -0.8342,-0.66146 -0.34178,-0.3638 -0.84447,-0.66146 -1.11709,-0.66146 -0.27262,0 -0.77154,-0.29765 -1.1087,-0.66145 -0.83986,-0.90623 -1.49972,-0.82619 -2.20842,0.26785 -0.32876,0.50753 -0.71571,0.92277 -0.85989,0.92277 -0.48794,0 -0.26584,0.44255 0.36674,0.73077 0.80779,0.36805 2.54611,1.89077 2.54611,2.23031 0,0.3552 -2.0782,-0.0132 -2.8214,-0.50022 -0.32119,-0.21045 -0.91701,-0.34422 -1.32404,-0.29727 l -0.74005,0.0854 1.00499,1.10972 c 1.60449,1.7717 1.87503,1.81298 8.90758,1.35915 0.21828,-0.0141 0.5939,-0.1966 0.83472,-0.40557 0.38323,-0.33256 0.56474,-0.31495 1.45521,0.14117 0.81493,0.41743 1.10949,0.78348 1.48038,1.83967 0.25466,0.7252 0.44933,1.95741 0.4326,2.73824 -0.0302,1.41125 -0.0316,1.4135 -0.23103,0.37775 -0.11032,-0.57307 -0.46332,-1.25469 -0.78442,-1.51471 -0.32111,-0.26001 -0.69054,-0.80317 -0.82095,-1.207 -0.25557,-0.79142 -0.21653,-0.0349 0.16194,3.13782 0.10969,0.91952 0.0679,1.67996 -0.10892,1.98438 -0.24699,0.42507 -0.29047,0.36507 -0.31342,-0.4325 -0.0146,-0.50932 -0.12896,-1.16416 -0.25403,-1.4552 -0.21697,-0.50493 -0.22824,-0.50189 -0.24598,0.0661 -0.0227,0.72707 -0.54777,0.80354 -0.54777,0.0798 0,-0.28355 -0.29121,-0.82976 -0.64713,-1.21381 -0.35593,-0.38405 -0.68335,-0.80001 -0.72761,-0.92435 -0.0627,-0.1761 -2.95516,0.4236 -3.34112,0.69271 -0.0471,0.0328 0.0995,0.41772 0.32574,0.85527 0.40949,0.79188 0.89205,3.75155 0.61167,3.75155 -0.0809,0 -0.42028,-0.44649 -0.75413,-0.99219 -0.33384,-0.5457 -0.76027,-1.14952 -0.94762,-1.34182 -0.18735,-0.19229 -0.34063,-0.55543 -0.34063,-0.80698 0,-0.70044 -0.54424,-1.09235 -1.51692,-1.09235 -1.11603,0 -2.69198,-0.79714 -7.41173,-3.74898 -3.70028,-2.31424 -3.78798,-2.35235 -4.79171,-2.08207 -0.56235,0.15142 -2.59844,0.51686 -4.52464,0.81209 l -3.5022,0.53678 -2.10488,2.12478 -2.10489,2.12478 -0.0442,2.696 c -0.0549,3.34875 0.52437,5.32267 2.72138,9.27341 0.83891,1.50855 1.60416,2.99131 1.70055,3.295 0.22132,0.69733 -0.30484,1.723 -1.75913,3.42914 -1.50801,1.76917 -3.74765,5.50696 -3.57277,5.96269 0.0766,0.19951 1.07297,0.8466 2.21423,1.43798 1.98782,1.03005 3.91083,1.62614 6.89327,2.13676 1.26502,0.21658 1.42693,0.18465 1.96435,-0.38741 0.47143,-0.50182 0.85755,-0.62345 1.97917,-0.62345 0.76641,0 1.47004,0.12389 1.56362,0.27531 0.0936,0.15142 0.62198,0.56053 1.17422,0.90915 1.02072,0.64435 1.91443,1.85327 2.25394,3.04888 0.16042,0.56494 0.0628,0.51342 -0.669,-0.35311 -0.76395,-0.90459 -0.95201,-0.9967 -1.73506,-0.8498 -0.67522,0.12668 -1.00152,0.0415 -1.4115,-0.3685 -0.29965,-0.29964 -0.71222,-0.46459 -0.94176,-0.3765 -0.32248,0.12374 -0.18291,0.40147 0.66278,1.31894 1.54335,1.67434 2.28321,3.77738 0.84371,2.39826 -0.40814,-0.39103 -0.92787,-0.71096 -1.15494,-0.71096 -0.22707,0 -0.71559,-0.23813 -1.08559,-0.52917 -0.98016,-0.77099 -1.36782,-0.66591 -2.45984,0.66676 -0.89173,1.08823 -0.94375,1.23714 -0.57771,1.65364 0.51424,0.58515 1.5941,2.72303 1.44881,2.86832 -0.0607,0.0607 -0.41521,-0.12943 -0.7878,-0.42251 -0.37259,-0.29308 -0.85243,-0.53287 -1.06632,-0.53287 -0.2139,0 -0.52554,-0.16465 -0.69254,-0.36587 -0.22396,-0.26985 -0.7447,-0.33047 -1.98411,-0.23099 l -1.68045,0.13489 -1.81113,-1.37106 c -1.67732,-1.26976 -4.75308,-2.94271 -6.10506,-3.32061 -0.46837,-0.13092 -0.73639,0.0741 -1.44739,1.10742 -0.47991,0.69745 -1.3475,2.33965 -1.92798,3.64934 l -1.05541,2.38125 -0.10166,4.0885 c -0.13232,5.32213 0.23903,6.89203 2.05725,8.6971 2.25504,2.23875 2.23545,2.16418 1.49167,5.67579 -0.35576,1.67966 -0.84898,3.36244 -1.09604,3.7395 -0.51072,0.77946 -0.81771,0.9178 -0.49386,0.22255 z m 52.7576,-82.48385 c 0,-0.21829 -0.10632,-0.39688 -0.23627,-0.39688 -0.12996,0 -0.30481,0.17859 -0.38858,0.39688 -0.0928,0.24175 -5.2e-4,0.39687 0.23628,0.39687 0.21371,0 0.38857,-0.17859 0.38857,-0.39687 z"
       id="path21"
       inkscape:connector-curvature="0" />
  </g>
</svg>
